{
	"asset":{
		"generator":"Khronos glTF Blender I/O v4.0.44",
		"version":"2.0"
	},
	"scene":0,
	"scenes":[
		{
			"name":"Scene",
			"nodes":[
				0
			]
		}
	],
	"nodes":[
		{
			"mesh":0,
			"name":"CARD"
		}
	],
	"materials":[
		{
			"doubleSided":true,
			"name":"Material.004",
			"pbrMetallicRoughness":{
				"baseColorFactor":[
					0,
					0,
					0,
					1
				],
				"metallicFactor":0,
				"roughnessFactor":0.029999999329447746
			}
		},
		{
			"doubleSided":true,
			"name":"Material.005",
			"pbrMetallicRoughness":{
				"roughnessFactor":0.5
			}
		}
	],
	"meshes":[
		{
			"name":"Cube.001",
			"primitives":[
				{
					"attributes":{
						"POSITION":0,
						"NORMAL":1,
						"TEXCOORD_0":2
					},
					"indices":3,
					"material":0
				},
				{
					"attributes":{
						"POSITION":4,
						"NORMAL":5,
						"TEXCOORD_0":6
					},
					"indices":7,
					"material":1
				}
			]
		}
	],
	"accessors":[
		{
			"bufferView":0,
			"componentType":5126,
			"count":168,
			"max":[
				0.004732783418148756,
				0.9718650579452515,
				0.616178572177887
			],
			"min":[
				-0.004732783418148756,
				-0.9718650579452515,
				-0.616178572177887
			],
			"type":"VEC3"
		},
		{
			"bufferView":1,
			"componentType":5126,
			"count":168,
			"type":"VEC3"
		},
		{
			"bufferView":2,
			"componentType":5126,
			"count":168,
			"type":"VEC2"
		},
		{
			"bufferView":3,
			"componentType":5123,
			"count":492,
			"type":"SCALAR"
		},
		{
			"bufferView":4,
			"componentType":5126,
			"count":844,
			"max":[
				0.016905207186937332,
				1,
				0.6443135142326355
			],
			"min":[
				-0.016905207186937332,
				-1,
				-0.6443135142326355
			],
			"type":"VEC3"
		},
		{
			"bufferView":5,
			"componentType":5126,
			"count":844,
			"type":"VEC3"
		},
		{
			"bufferView":6,
			"componentType":5126,
			"count":844,
			"type":"VEC2"
		},
		{
			"bufferView":7,
			"componentType":5123,
			"count":2520,
			"type":"SCALAR"
		}
	],
	"bufferViews":[
		{
			"buffer":0,
			"byteLength":2016,
			"byteOffset":0,
			"target":34962
		},
		{
			"buffer":0,
			"byteLength":2016,
			"byteOffset":2016,
			"target":34962
		},
		{
			"buffer":0,
			"byteLength":1344,
			"byteOffset":4032,
			"target":34962
		},
		{
			"buffer":0,
			"byteLength":984,
			"byteOffset":5376,
			"target":34963
		},
		{
			"buffer":0,
			"byteLength":10128,
			"byteOffset":6360,
			"target":34962
		},
		{
			"buffer":0,
			"byteLength":10128,
			"byteOffset":16488,
			"target":34962
		},
		{
			"buffer":0,
			"byteLength":6752,
			"byteOffset":26616,
			"target":34962
		},
		{
			"buffer":0,
			"byteLength":5040,
			"byteOffset":33368,
			"target":34963
		}
	],
	"buffers":[
		{
			"byteLength":38408,
			"uri":"badgecardtest.bin"
		}
	]
}
